<?xml version="1.0"?>
<svg xmlns="http://www.w3.org/2000/svg" xmlns:xlink="http://www.w3.org/1999/xlink" xmlns:svgjs="http://svgjs.com/svgjs" version="1.1" width="512" height="512" x="0" y="0" viewBox="0 0 512 512" style="enable-background:new 0 0 512 512" xml:space="preserve"><g><g xmlns="http://www.w3.org/2000/svg"><g><path d="m271 430h30v82h-30z" fill="#ffffff" data-original="#000000"/><path d="m211 430h30v82h-30z" fill="#ffffff" data-original="#000000"/><path d="m357 0h-202c-8.284 0-15 6.716-15 15v497h41v-97c0-8.284 6.716-15 15-15h60 60c8.284 0 15 6.716 15 15v97h41v-497c0-8.284-6.716-15-15-15zm-146 355c0 8.284-6.716 15-15 15s-15-6.716-15-15v-30c0-8.284 6.716-15 15-15s15 6.716 15 15zm0-90c0 8.284-6.716 15-15 15s-15-6.716-15-15v-30c0-8.284 6.716-15 15-15s15 6.716 15 15zm60 90c0 8.284-6.716 15-15 15s-15-6.716-15-15v-30c0-8.284 6.716-15 15-15s15 6.716 15 15zm0-90c0 8.284-6.716 15-15 15s-15-6.716-15-15v-30c0-8.284 6.716-15 15-15s15 6.716 15 15zm60 90c0 8.284-6.716 15-15 15s-15-6.716-15-15v-30c0-8.284 6.716-15 15-15s15 6.716 15 15zm0-90c0 8.284-6.716 15-15 15s-15-6.716-15-15v-30c0-8.284 6.716-15 15-15s15 6.716 15 15zm-120-90c0 8.284-6.716 15-15 15s-15-6.716-15-15v-30c0-8.284 6.716-15 15-15s15 6.716 15 15zm60 0c0 8.284-6.716 15-15 15s-15-6.716-15-15v-30c0-8.284 6.716-15 15-15s15 6.716 15 15zm60 0c0 8.284-6.716 15-15 15s-15-6.716-15-15v-30c0-8.284 6.716-15 15-15s15 6.716 15 15zm-120-90c0 8.284-6.716 15-15 15s-15-6.716-15-15v-30c0-8.284 6.716-15 15-15s15 6.716 15 15zm60 0c0 8.284-6.716 15-15 15s-15-6.716-15-15v-30c0-8.284 6.716-15 15-15s15 6.716 15 15zm60 0c0 8.284-6.716 15-15 15s-15-6.716-15-15v-30c0-8.284 6.716-15 15-15s15 6.716 15 15z" fill="#ffffff" data-original="#000000"/></g><path d="m497 200h-95v312h95c8.284 0 15-6.716 15-15v-282c0-8.284-6.716-15-15-15zm-25 195c0 8.284-6.716 15-15 15s-15-6.716-15-15v-30c0-8.284 6.716-15 15-15s15 6.716 15 15zm0-90c0 8.284-6.716 15-15 15s-15-6.716-15-15v-30c0-8.284 6.716-15 15-15s15 6.716 15 15z" fill="#ffffff" data-original="#000000"/><path d="m15 200c-8.284 0-15 6.716-15 15v282c0 8.284 6.716 15 15 15h95v-312zm55 195c0 8.284-6.716 15-15 15s-15-6.716-15-15v-30c0-8.284 6.716-15 15-15s15 6.716 15 15zm0-90c0 8.284-6.716 15-15 15s-15-6.716-15-15v-30c0-8.284 6.716-15 15-15s15 6.716 15 15z" fill="#ffffff" data-original="#000000"/></g></g></svg>
